<?xml version="1.0" encoding="UTF-8" standalone="no"?>
<!-- Created with Inkscape (http://www.inkscape.org/) -->

<svg
   width="512"
   height="512"
   viewBox="0 0 512 512"
   version="1.1"
   id="svg5"
   inkscape:version="1.1.2 (0a00cf5339, 2022-02-04)"
   sodipodi:docname="4-test.svg"
   xmlns:inkscape="http://www.inkscape.org/namespaces/inkscape"
   xmlns:sodipodi="http://sodipodi.sourceforge.net/DTD/sodipodi-0.dtd"
   xmlns="http://www.w3.org/2000/svg"
   xmlns:svg="http://www.w3.org/2000/svg">
  <sodipodi:namedview
     id="namedview7"
     pagecolor="#ffffff"
     bordercolor="#666666"
     borderopacity="1.0"
     inkscape:pageshadow="2"
     inkscape:pageopacity="0.0"
     inkscape:pagecheckerboard="0"
     inkscape:document-units="px"
     showgrid="false"
     inkscape:zoom="0.78055585"
     inkscape:cx="275.44474"
     inkscape:cy="352.31303"
     inkscape:current-layer="layer1"
     inkscape:window-width="1920"
     inkscape:window-height="1011"
     inkscape:window-x="0"
     inkscape:window-y="0"
     inkscape:window-maximized="1" />
  <defs
     id="defs2" />
  <g
     inkscape:label="Layer 1"
     inkscape:groupmode="layer"
     id="layer1">
    <path
       sodipodi:type="star"
       style="fill:#000000;stroke:#000000"
       id="path75"
       inkscape:flatsided="false"
       sodipodi:sides="5"
       sodipodi:cx="271.93195"
       sodipodi:cy="258.41833"
       sodipodi:r1="189.95776"
       sodipodi:r2="94.978889"
       sodipodi:arg1="0.66928474"
       sodipodi:arg2="1.2976033"
       inkscape:rounded="0"
       inkscape:randomized="0"
       d="M 420.90929,376.27292 297.55795,349.87487 205.88211,436.52328 192.87049,311.05174 82.133556,250.63866 197.44327,199.49104 220.67993,75.505289 l 84.27694,93.860571 125.09798,-16.21433 -63.2237,109.15664 z"
       inkscape:transform-center-x="7.3111685"
       inkscape:transform-center-y="8.4601648"
       transform="matrix(0.42841728,0.74364332,-0.7423039,0.42949509,338.67925,-65.720266)" />
    <path
       sodipodi:type="star"
       style="fill:#2e3436;stroke:#000000"
       id="path75-3"
       inkscape:flatsided="false"
       sodipodi:sides="5"
       sodipodi:cx="271.93195"
       sodipodi:cy="258.41833"
       sodipodi:r1="189.95776"
       sodipodi:r2="94.978889"
       sodipodi:arg1="0.66928474"
       sodipodi:arg2="1.2976033"
       inkscape:rounded="0"
       inkscape:randomized="0"
       inkscape:transform-center-x="-5.8208389"
       inkscape:transform-center-y="9.9106525"
       d="M 420.90929,376.27292 297.55795,349.87487 205.88211,436.52328 192.87049,311.05174 82.133556,250.63866 197.44327,199.49104 220.67993,75.505289 l 84.27694,93.860571 125.09798,-16.21433 -63.2237,109.15664 z"
       transform="matrix(0.6059417,0.60714282,-0.60612794,0.60732945,242.00421,-76.016192)" />
    <path
       sodipodi:type="star"
       style="fill:#555753;stroke:#000000"
       id="path75-3-5"
       inkscape:flatsided="false"
       sodipodi:sides="5"
       sodipodi:cx="271.93195"
       sodipodi:cy="258.41833"
       sodipodi:r1="189.95776"
       sodipodi:r2="94.978889"
       sodipodi:arg1="0.66928474"
       sodipodi:arg2="1.2976033"
       inkscape:rounded="0"
       inkscape:randomized="0"
       inkscape:transform-center-x="-12.474087"
       inkscape:transform-center-y="-3.2193299"
       transform="matrix(0.74217218,0.42926648,-0.42864542,0.74377531,152.40123,-49.697963)"
       d="M 420.90929,376.27292 297.55795,349.87487 205.88211,436.52328 192.87049,311.05174 82.133556,250.63866 197.44327,199.49104 220.67993,75.505289 l 84.27694,93.860571 125.09798,-16.21433 -63.2237,109.15664 z" />
    <path
       sodipodi:type="star"
       style="fill:#888a85;stroke:#000000"
       id="path75-3-5-6"
       inkscape:flatsided="false"
       sodipodi:sides="5"
       sodipodi:cx="271.93195"
       sodipodi:cy="258.41833"
       sodipodi:r1="189.95776"
       sodipodi:r2="94.978889"
       sodipodi:arg1="0.66928474"
       sodipodi:arg2="1.2976033"
       inkscape:rounded="0"
       inkscape:randomized="0"
       inkscape:transform-center-x="0.5654708"
       inkscape:transform-center-y="-15.022736"
       transform="matrix(0.82782489,0.22213636,-0.22195137,0.82953414,88.813102,-3.6607098)"
       d="M 420.90929,376.27292 297.55795,349.87487 205.88211,436.52328 192.87049,311.05174 82.133556,250.63866 197.44327,199.49104 220.67993,75.505289 l 84.27694,93.860571 125.09798,-16.21433 -63.2237,109.15664 z" />
    <path
       sodipodi:type="star"
       style="fill:#babdb6;stroke:#000000"
       id="path75-3-5-6-3"
       inkscape:flatsided="false"
       sodipodi:sides="5"
       sodipodi:cx="271.93195"
       sodipodi:cy="258.41833"
       sodipodi:r1="189.95776"
       sodipodi:r2="94.978889"
       sodipodi:arg1="0.66928474"
       sodipodi:arg2="1.2976033"
       inkscape:rounded="0"
       inkscape:randomized="0"
       inkscape:transform-center-x="13.566497"
       inkscape:transform-center-y="-2.0567769"
       transform="matrix(0.85706267,-1.320015e-4,-1.3170654e-4,0.85876154,36.618498,36.185165)"
       d="M 420.90929,376.27292 297.55795,349.87487 205.88211,436.52328 192.87049,311.05174 82.133556,250.63866 197.44327,199.49104 220.67993,75.505289 l 84.27694,93.860571 125.09798,-16.21433 -63.2237,109.15664 z" />
  </g>
</svg>
