<?xml version="1.0" encoding="UTF-8" standalone="no"?>
<!-- Created with Inkscape (http://www.inkscape.org/) -->

<svg
   version="1.1"
   id="svg2"
   width="512"
   height="512"
   viewBox="0 0 512 512"
   sodipodi:docname="ava.svg"
   inkscape:version="1.1.2 (0a00cf5339, 2022-02-04)"
   xmlns:inkscape="http://www.inkscape.org/namespaces/inkscape"
   xmlns:sodipodi="http://sodipodi.sourceforge.net/DTD/sodipodi-0.dtd"
   xmlns="http://www.w3.org/2000/svg"
   xmlns:svg="http://www.w3.org/2000/svg">
  <defs
     id="defs6">
    <inkscape:perspective
       sodipodi:type="inkscape:persp3d"
       inkscape:vp_x="28.127301 : -202.31132 : 1"
       inkscape:vp_y="-928.00702 : -916.82374 : 0"
       inkscape:vp_z="-441.28645 : 272.82827 : 1"
       inkscape:persp3d-origin="-127.38963 : 113.49409 : 1"
       id="perspective7966" />
    <linearGradient
       id="linearGradient862"
       inkscape:swatch="solid">
      <stop
         style="stop-color:#ffe6c0;stop-opacity:1;"
         offset="0"
         id="stop860" />
    </linearGradient>
  </defs>
  <sodipodi:namedview
     id="namedview4"
     pagecolor="#ffffff"
     bordercolor="#666666"
     borderopacity="1.0"
     inkscape:pageshadow="2"
     inkscape:pageopacity="0.0"
     inkscape:pagecheckerboard="0"
     showgrid="false"
     inkscape:zoom="0.97085724"
     inkscape:cx="109.69687"
     inkscape:cy="263.68449"
     inkscape:window-width="1920"
     inkscape:window-height="1011"
     inkscape:window-x="0"
     inkscape:window-y="0"
     inkscape:window-maximized="1"
     inkscape:current-layer="g8" />
  <g
     inkscape:groupmode="layer"
     inkscape:label="Image"
     id="g8">
    <rect
       style="opacity:1;fill:#ffffff;fill-opacity:1;stroke:none;stroke-width:3;stroke-miterlimit:4;stroke-dasharray:none;stroke-dashoffset:0;stroke-opacity:1"
       id="rect95519"
       width="512"
       height="512"
       x="0"
       y="0" />
    <rect
       style="fill:#f9e9d3;fill-opacity:1;stroke:#000000;stroke-width:3;stroke-miterlimit:4;stroke-dasharray:none"
       id="rect9222"
       width="29.741756"
       height="56.779716"
       x="225.31633"
       y="231.75395" />
    <ellipse
       style="fill:#f9e9d3;fill-opacity:1;stroke:#000000;stroke-width:3;stroke-dasharray:none;stroke-miterlimit:4"
       id="path967"
       cx="242.94197"
       cy="180.01587"
       rx="50.933693"
       ry="61.351028" />
    <path
       style="fill:#333333;fill-opacity:1;stroke:#000000;stroke-width:2.82595;stroke-linecap:butt;stroke-linejoin:miter;stroke-miterlimit:4;stroke-dasharray:none;stroke-opacity:1"
       d="m 182.92713,433.92688 -33.5441,-37.64475 173.59441,-13.24474 37.54586,49.28306 z"
       id="path5653"
       sodipodi:nodetypes="ccccc" />
    <circle
       style="fill:none;fill-opacity:0.976471;stroke:#000000;stroke-width:2.38581;stroke-miterlimit:4;stroke-dasharray:none;stroke-dashoffset:0;stroke-opacity:1"
       id="path2346"
       cx="223.21761"
       cy="161.58502"
       r="15.065462" />
    <path
       id="path2346-4"
       style="fill:none;fill-opacity:0.976471;stroke:#000000;stroke-width:2.38581;stroke-miterlimit:4;stroke-dasharray:none;stroke-dashoffset:0;stroke-opacity:1"
       d="m 257.20565,146.51917 a 15.065462,15.065462 0 0 0 -15.03555,14.64102 15.065462,15.065462 0 0 0 -0.0311,0.42559 15.065462,15.065462 0 0 0 15.06661,15.06506 15.065462,15.065462 0 0 0 15.06506,-15.06506 15.065462,15.065462 0 0 0 -0.006,-0.22522 15.065462,15.065462 0 0 0 -15.05885,-14.84139 z" />
    <path
       style="fill:none;stroke:#000000;stroke-width:2.38581;stroke-linecap:butt;stroke-linejoin:miter;stroke-miterlimit:4;stroke-dasharray:none;stroke-opacity:1"
       d="m 202.37716,160.12749 h 6.32102 z"
       id="path2843" />
    <path
       style="fill:none;stroke:#000000;stroke-width:2.38581;stroke-linecap:butt;stroke-linejoin:miter;stroke-miterlimit:4;stroke-dasharray:none;stroke-opacity:1"
       d="m 238.55464,160.21536 h 3.44407 z"
       id="path2845" />
    <path
       style="fill:none;stroke:#000000;stroke-width:2.38581;stroke-linecap:butt;stroke-linejoin:miter;stroke-miterlimit:4;stroke-dasharray:none;stroke-opacity:1"
       d="m 272.0266,160.12197 h 6.13258 z"
       id="path2847" />
    <circle
       style="fill:#2e3436;fill-opacity:0.976471;stroke:#000000;stroke-width:2.38581;stroke-miterlimit:4;stroke-dasharray:none;stroke-dashoffset:0;stroke-opacity:1"
       id="path3855"
       cx="222.82747"
       cy="161.26073"
       r="4.0343752" />
    <circle
       style="fill:#2e3436;fill-opacity:0.976471;stroke:#000000;stroke-width:2.38581;stroke-miterlimit:4;stroke-dasharray:none;stroke-dashoffset:0;stroke-opacity:1"
       id="path3855-1"
       cx="257.05225"
       cy="161.85939"
       r="4.0343752" />
    <path
       style="fill:none;stroke:#000000;stroke-width:2.38581;stroke-linecap:butt;stroke-linejoin:miter;stroke-miterlimit:4;stroke-dasharray:none;stroke-opacity:1"
       d="m 233.66466,180.73889 c 6.60619,6.13536 9.9211,3.16196 13.18088,0.0359 -6.34999,4.50787 -9.59449,1.84103 -13.18088,-0.0359 z"
       id="path3997"
       sodipodi:nodetypes="ccc" />
    <path
       style="fill:#2e3436;stroke:#000000;stroke-width:2.38581;stroke-linecap:butt;stroke-linejoin:miter;stroke-miterlimit:4;stroke-dasharray:none;stroke-opacity:1"
       d="m 230.22246,206.47036 v 0 l 7.65057,-4.96651 2.36136,1.88343 2.17077,-2.10874 7.79526,5.61567 v 0 c -10.61143,7.57113 -15.18564,3.36083 -19.97796,-0.42385 z"
       id="path4259"
       sodipodi:nodetypes="cccccccc" />
    <path
       style="fill:none;stroke:#000000;stroke-width:1px;stroke-linecap:butt;stroke-linejoin:miter;stroke-opacity:1"
       d="M 197.77713,263.80053 Z"
       id="path38883" />
    <path
       id="path849"
       style="display:inline;fill:#424441;fill-opacity:1;stroke:#000000;stroke-width:2.38581;stroke-miterlimit:4;stroke-dasharray:none;stroke-dashoffset:0;stroke-opacity:0.823529"
       d="m 240.21144,72.938171 c -45.89088,3e-5 -83.09286,46.473289 -83.09316,103.801209 0.0504,15.97452 3.05151,31.71898 8.76971,46.00754 h 37.1493 c -4.44487,-20.96342 -5.29014,-45.11319 2.06428,-76.52598 23.71126,-4.93676 47.13821,-5.28045 70.21975,0 4.61377,23.6214 10.04054,48.63387 2.67005,76.52598 h 36.54198 c 5.71836,-14.28746 8.72,-30.03081 8.77125,-46.00444 v -0.002 C 323.30498,119.41204 286.10281,72.937791 240.21144,72.937761 Z" />
    <rect
       style="fill:#6f6f6f;fill-opacity:1;stroke:#000000;stroke-width:3.55064;stroke-miterlimit:4;stroke-dasharray:none"
       id="rect16532"
       width="160.69545"
       height="129.0097"
       x="161.77078"
       y="260.72321"
       ry="33.990578" />
    <rect
       style="fill:#bcbcbc;fill-opacity:1;stroke:#000000;stroke-width:2.82595;stroke-miterlimit:4;stroke-dasharray:none;stroke-opacity:1"
       id="rect2757"
       width="186.56223"
       height="110.76447"
       x="177.90672"
       y="328.0777"
       ry="14.50969"
       rx="14.509691" />
    <g
       sodipodi:type="inkscape:box3d"
       id="g7968"
       style="opacity:1;fill:#8c908c;fill-opacity:1;stroke:#000000;stroke-width:3;stroke-miterlimit:4;stroke-dasharray:none;stroke-opacity:1"
       inkscape:perspectiveID="#perspective7966"
       inkscape:corner0="1.2359386 : -0.27994925 : 0 : 1"
       inkscape:corner7="1.1310424 : -0.39236481 : 0.25 : 1">
      <path
         sodipodi:type="inkscape:box3dside"
         id="path7980"
         style="fill:#8c908c;fill-opacity:1;stroke-width:3.91355"
         inkscape:box3dsidetype="11"
         d="m 22.867517,436.24555 -0.231718,-12.25011 43.813763,-43.28577 -1.617039,14.07659 z"
         points="22.635799,423.99544 66.449562,380.70967 64.832523,394.78626 22.867517,436.24555 " />
      <path
         sodipodi:type="inkscape:box3dside"
         id="path7970"
         style="fill:#8c908c;fill-opacity:1;fill-rule:evenodd;stroke:none;stroke-width:3.91355;stroke-linejoin:round"
         inkscape:box3dsidetype="6"
         d="M 74.764511,458.28035 121.42162,412.1855 64.832523,394.78626 22.867517,436.24555 Z"
         points="121.42162,412.1855 64.832523,394.78626 22.867517,436.24555 74.764511,458.28035 " />
      <path
         sodipodi:type="inkscape:box3dside"
         id="path7978"
         style="fill:#8c908c;fill-opacity:1;fill-rule:evenodd;stroke:none;stroke-width:3.91355;stroke-linejoin:round"
         inkscape:box3dsidetype="13"
         d="m 121.42162,412.1855 4.59222,-14.87152 -59.564278,-16.60431 -1.617039,14.07659 z"
         points="126.01384,397.31398 66.449562,380.70967 64.832523,394.78626 121.42162,412.1855 " />
      <path
         sodipodi:type="inkscape:box3dside"
         id="path7972"
         style="fill:#8c908c;fill-opacity:1;stroke-width:3.91355"
         inkscape:box3dsidetype="5"
         d="m 74.764511,458.28035 2.295621,-12.6026 -54.424333,-21.68231 0.231718,12.25011 z"
         points="77.060132,445.67775 22.635799,423.99544 22.867517,436.24555 74.764511,458.28035 " />
      <path
         sodipodi:type="inkscape:box3dside"
         id="path7976"
         style="fill:#8c908c;fill-opacity:1;stroke-width:3.91355"
         inkscape:box3dsidetype="14"
         d="M 77.060132,445.67775 126.01384,397.31398 66.449562,380.70967 22.635799,423.99544 Z"
         points="126.01384,397.31398 66.449562,380.70967 22.635799,423.99544 77.060132,445.67775 " />
      <path
         sodipodi:type="inkscape:box3dside"
         id="path7974"
         style="fill:#8c908c;fill-opacity:1;fill-rule:evenodd;stroke:none;stroke-width:3.91355;stroke-linejoin:round"
         inkscape:box3dsidetype="3"
         d="m 74.764511,458.28035 2.295621,-12.6026 48.953708,-48.36377 -4.59222,14.87152 z"
         points="77.060132,445.67775 126.01384,397.31398 121.42162,412.1855 74.764511,458.28035 " />
    </g>
  </g>
</svg>
