<?xml version="1.0" encoding="UTF-8" standalone="no"?>
<!-- Created with Inkscape (http://www.inkscape.org/) -->

<svg
   version="1.1"
   id="svg2"
   width="512"
   height="512"
   viewBox="0 0 512 512"
   sodipodi:docname="ava.svg"
   inkscape:version="1.1.2 (0a00cf5339, 2022-02-04)"
   xmlns:inkscape="http://www.inkscape.org/namespaces/inkscape"
   xmlns:sodipodi="http://sodipodi.sourceforge.net/DTD/sodipodi-0.dtd"
   xmlns="http://www.w3.org/2000/svg"
   xmlns:svg="http://www.w3.org/2000/svg">
  <defs
     id="defs6">
    <inkscape:perspective
       sodipodi:type="inkscape:persp3d"
       inkscape:vp_x="28.127301 : -202.31132 : 1"
       inkscape:vp_y="-928.00702 : -916.82374 : 0"
       inkscape:vp_z="-441.28645 : 272.82827 : 1"
       inkscape:persp3d-origin="-127.38963 : 113.49409 : 1"
       id="perspective7966" />
    <linearGradient
       id="linearGradient862"
       inkscape:swatch="solid">
      <stop
         style="stop-color:#ffe6c0;stop-opacity:1;"
         offset="0"
         id="stop860" />
    </linearGradient>
  </defs>
  <sodipodi:namedview
     id="namedview4"
     pagecolor="#ffffff"
     bordercolor="#666666"
     borderopacity="1.0"
     inkscape:pageshadow="2"
     inkscape:pageopacity="0.0"
     inkscape:pagecheckerboard="0"
     showgrid="false"
     inkscape:zoom="0.97085724"
     inkscape:cx="109.69687"
     inkscape:cy="263.68449"
     inkscape:window-width="1920"
     inkscape:window-height="1011"
     inkscape:window-x="0"
     inkscape:window-y="0"
     inkscape:window-maximized="1"
     inkscape:current-layer="g8" />
  <g
     inkscape:groupmode="layer"
     inkscape:label="Image"
     id="g8">
    <rect
       style="opacity:1;fill:#ffffff;fill-opacity:1;stroke:none;stroke-width:3;stroke-miterlimit:4;stroke-dasharray:none;stroke-dashoffset:0;stroke-opacity:1"
       id="rect95519"
       width="512"
       height="512"
       x="0"
       y="0" />
    <g
       id="g1026"
       transform="translate(-11.015947,-51.320679)">
      <path
         style="fill:#333333;fill-opacity:1;stroke:#000000;stroke-width:2.82595;stroke-linecap:butt;stroke-linejoin:miter;stroke-miterlimit:4;stroke-dasharray:none;stroke-opacity:1"
         d="m 193.94308,485.24756 -33.5441,-37.64475 173.59441,-13.24474 37.54586,49.28306 z"
         id="path5653"
         sodipodi:nodetypes="ccccc" />
      <path
         style="fill:#6f6f6f;fill-opacity:1;stroke:#000000;stroke-width:2.72046;stroke-linecap:butt;stroke-linejoin:miter;stroke-miterlimit:4;stroke-dasharray:none;stroke-opacity:1"
         d="m 197.67654,312.68118 c -23.76407,-4.95198 -39.22619,26.19171 -39.18219,52.8291 1.38695,30.36765 7.73315,70.24366 27.61391,71.04152 L 348.96,438.92485 339.02739,336.23958 c -5.79233,-25.02131 -34.99681,-21.49795 -34.22197,-21.66037 -36.03053,29.80401 -111.04759,-1.59716 -107.12888,-1.89803 z"
         id="path22397"
         sodipodi:nodetypes="ccccccc" />
      <path
         style="fill:#f9e9d3;fill-opacity:1;stroke:#000000;stroke-width:2.38581;stroke-linecap:butt;stroke-linejoin:miter;stroke-miterlimit:4;stroke-dasharray:none;stroke-opacity:1"
         d="m 212.60533,197.54162 c 30.97154,-16.59815 51.61307,-10.5314 70.21974,0 21.59943,21.48315 19.01843,47.66652 2.67005,76.52598 l -11.62987,4.501 0.46103,32.59775 c 0,0 13.57521,7.24088 24.28804,5.74924 -32.95279,23.47642 -116.87715,-4.82423 -89.82124,-1.79438 l 18.39318,-3.35807 0.52794,-32.46135 c 0,0 -9.8867,-3.39517 -17.17315,-5.23419 -18.59953,-21.88062 -10.31772,-48.81767 2.06428,-76.52598 z"
         id="path4263"
         sodipodi:nodetypes="ccccccccccc" />
      <circle
         style="fill:none;fill-opacity:0.976471;stroke:#000000;stroke-width:2.38581;stroke-miterlimit:4;stroke-dasharray:none;stroke-dashoffset:0;stroke-opacity:1"
         id="path2346"
         cx="234.23355"
         cy="212.9057"
         r="15.065462" />
      <path
         id="path2346-4"
         style="fill:none;fill-opacity:0.976471;stroke:#000000;stroke-width:2.38581;stroke-miterlimit:4;stroke-dasharray:none;stroke-dashoffset:0;stroke-opacity:1"
         d="m 268.2216,197.83985 a 15.065462,15.065462 0 0 0 -15.03555,14.64102 15.065462,15.065462 0 0 0 -0.0311,0.42559 15.065462,15.065462 0 0 0 15.06661,15.06506 15.065462,15.065462 0 0 0 15.06506,-15.06506 15.065462,15.065462 0 0 0 -0.006,-0.22522 15.065462,15.065462 0 0 0 -15.05885,-14.84139 z" />
      <path
         style="fill:none;stroke:#000000;stroke-width:2.38581;stroke-linecap:butt;stroke-linejoin:miter;stroke-miterlimit:4;stroke-dasharray:none;stroke-opacity:1"
         d="m 213.39311,211.44817 h 6.32102 z"
         id="path2843" />
      <path
         style="fill:none;stroke:#000000;stroke-width:2.38581;stroke-linecap:butt;stroke-linejoin:miter;stroke-miterlimit:4;stroke-dasharray:none;stroke-opacity:1"
         d="m 249.57059,211.53604 h 3.44407 z"
         id="path2845" />
      <path
         style="fill:none;stroke:#000000;stroke-width:2.38581;stroke-linecap:butt;stroke-linejoin:miter;stroke-miterlimit:4;stroke-dasharray:none;stroke-opacity:1"
         d="m 283.04255,211.44265 h 6.13258 z"
         id="path2847" />
      <circle
         style="fill:#2e3436;fill-opacity:0.976471;stroke:#000000;stroke-width:2.38581;stroke-miterlimit:4;stroke-dasharray:none;stroke-dashoffset:0;stroke-opacity:1"
         id="path3855"
         cx="233.84341"
         cy="212.58141"
         r="4.0343752" />
      <circle
         style="fill:#2e3436;fill-opacity:0.976471;stroke:#000000;stroke-width:2.38581;stroke-miterlimit:4;stroke-dasharray:none;stroke-dashoffset:0;stroke-opacity:1"
         id="path3855-1"
         cx="268.06821"
         cy="213.18007"
         r="4.0343752" />
      <path
         style="fill:none;stroke:#000000;stroke-width:2.38581;stroke-linecap:butt;stroke-linejoin:miter;stroke-miterlimit:4;stroke-dasharray:none;stroke-opacity:1"
         d="m 244.68061,232.05957 c 6.60619,6.13536 9.9211,3.16196 13.18088,0.0359 -6.34999,4.50787 -9.59449,1.84103 -13.18088,-0.0359 z"
         id="path3997"
         sodipodi:nodetypes="ccc" />
      <path
         style="fill:#2e3436;stroke:#000000;stroke-width:2.38581;stroke-linecap:butt;stroke-linejoin:miter;stroke-miterlimit:4;stroke-dasharray:none;stroke-opacity:1"
         d="m 241.23841,257.79104 v 0 l 7.65057,-4.96651 2.36136,1.88343 2.17077,-2.10874 7.79526,5.61567 v 0 c -10.61143,7.57113 -15.18564,3.36083 -19.97796,-0.42385 z"
         id="path4259"
         sodipodi:nodetypes="cccccccc" />
      <path
         style="fill:none;stroke:#000000;stroke-width:1px;stroke-linecap:butt;stroke-linejoin:miter;stroke-opacity:1"
         d="M 208.79308,315.12121 Z"
         id="path38883" />
      <path
         style="fill:#b6b6b6;fill-opacity:1;stroke:#000000;stroke-width:2.72046;stroke-linecap:butt;stroke-linejoin:miter;stroke-miterlimit:4;stroke-dasharray:none;stroke-opacity:1"
         d="m 196.95429,312.13944 c 1.53685,1.42377 2.21176,9.24752 2.21176,9.24752 37.81568,15.47628 55.31617,13.86881 103.28592,2.57208 3.42444,-0.80644 2.60974,-12.28971 2.70168,-9.77354 8.2e-4,0.0224 -0.10132,-0.94302 0,0 -62.16996,23.83831 -110.72149,-3.06597 -108.19936,-2.04606 z"
         id="path38885"
         sodipodi:nodetypes="cssscc" />
      <path
         id="path849"
         style="display:inline;fill:#424441;fill-opacity:1;stroke:#000000;stroke-width:2.38581;stroke-miterlimit:4;stroke-dasharray:none;stroke-dashoffset:0;stroke-opacity:0.823529"
         d="m 251.22739,124.25885 c -45.89088,3e-5 -83.09286,46.47329 -83.09316,103.80121 0.0504,15.97452 3.05151,31.71898 8.76971,46.00754 h 37.1493 c -4.44487,-20.96342 -5.29014,-45.11319 2.06428,-76.52598 23.71126,-4.93676 47.13821,-5.28045 70.21975,0 4.61377,23.6214 10.04054,48.63387 2.67005,76.52598 h 36.54198 c 5.71836,-14.28746 8.72,-30.03081 8.77125,-46.00444 v -0.002 c 3.8e-4,-57.32844 -37.20179,-103.80269 -83.09316,-103.80272 z" />
      <rect
         style="opacity:1;fill:#bcbcbc;fill-opacity:1;stroke:#000000;stroke-width:2.82595;stroke-miterlimit:4;stroke-dasharray:none;stroke-opacity:1"
         id="rect2757"
         width="186.56223"
         height="110.76447"
         x="188.92267"
         y="379.39838"
         ry="14.50969"
         rx="14.509691" />
    </g>
    <g
       sodipodi:type="inkscape:box3d"
       id="g7968"
       style="opacity:1;fill:#8c908c;fill-opacity:1;stroke:#000000;stroke-width:3;stroke-miterlimit:4;stroke-dasharray:none;stroke-opacity:1"
       inkscape:perspectiveID="#perspective7966"
       inkscape:corner0="1.2359386 : -0.27994925 : 0 : 1"
       inkscape:corner7="1.1310424 : -0.39236481 : 0.25 : 1">
      <path
         sodipodi:type="inkscape:box3dside"
         id="path7980"
         style="fill:#8c908c;fill-opacity:1;stroke-width:3.91355"
         inkscape:box3dsidetype="11"
         d="m 22.867517,436.24555 -0.231718,-12.25011 43.813763,-43.28577 -1.617039,14.07659 z"
         points="22.635799,423.99544 66.449562,380.70967 64.832523,394.78626 22.867517,436.24555 " />
      <path
         sodipodi:type="inkscape:box3dside"
         id="path7970"
         style="fill:#8c908c;fill-opacity:1;fill-rule:evenodd;stroke:none;stroke-width:3.91355;stroke-linejoin:round"
         inkscape:box3dsidetype="6"
         d="M 74.764511,458.28035 121.42162,412.1855 64.832523,394.78626 22.867517,436.24555 Z"
         points="121.42162,412.1855 64.832523,394.78626 22.867517,436.24555 74.764511,458.28035 " />
      <path
         sodipodi:type="inkscape:box3dside"
         id="path7978"
         style="fill:#8c908c;fill-opacity:1;fill-rule:evenodd;stroke:none;stroke-width:3.91355;stroke-linejoin:round"
         inkscape:box3dsidetype="13"
         d="m 121.42162,412.1855 4.59222,-14.87152 -59.564278,-16.60431 -1.617039,14.07659 z"
         points="126.01384,397.31398 66.449562,380.70967 64.832523,394.78626 121.42162,412.1855 " />
      <path
         sodipodi:type="inkscape:box3dside"
         id="path7972"
         style="fill:#8c908c;fill-opacity:1;stroke-width:3.91355"
         inkscape:box3dsidetype="5"
         d="m 74.764511,458.28035 2.295621,-12.6026 -54.424333,-21.68231 0.231718,12.25011 z"
         points="77.060132,445.67775 22.635799,423.99544 22.867517,436.24555 74.764511,458.28035 " />
      <path
         sodipodi:type="inkscape:box3dside"
         id="path7976"
         style="fill:#8c908c;fill-opacity:1;stroke-width:3.91355"
         inkscape:box3dsidetype="14"
         d="M 77.060132,445.67775 126.01384,397.31398 66.449562,380.70967 22.635799,423.99544 Z"
         points="126.01384,397.31398 66.449562,380.70967 22.635799,423.99544 77.060132,445.67775 " />
      <path
         sodipodi:type="inkscape:box3dside"
         id="path7974"
         style="fill:#8c908c;fill-opacity:1;fill-rule:evenodd;stroke:none;stroke-width:3.91355;stroke-linejoin:round"
         inkscape:box3dsidetype="3"
         d="m 74.764511,458.28035 2.295621,-12.6026 48.953708,-48.36377 -4.59222,14.87152 z"
         points="77.060132,445.67775 126.01384,397.31398 121.42162,412.1855 74.764511,458.28035 " />
    </g>
  </g>
</svg>
