<?xml version="1.0" encoding="UTF-8" standalone="no"?>
<!-- Created with Inkscape (http://www.inkscape.org/) -->

<svg
   version="1.1"
   id="svg2"
   width="512"
   height="512"
   viewBox="0 0 512 512"
   sodipodi:docname="girl-laptop-512x512.svg"
   inkscape:version="1.1.2 (0a00cf5339, 2022-02-04)"
   xmlns:inkscape="http://www.inkscape.org/namespaces/inkscape"
   xmlns:sodipodi="http://sodipodi.sourceforge.net/DTD/sodipodi-0.dtd"
   xmlns="http://www.w3.org/2000/svg"
   xmlns:svg="http://www.w3.org/2000/svg">
  <defs
     id="defs6" />
  <sodipodi:namedview
     id="namedview4"
     pagecolor="#ffffff"
     bordercolor="#666666"
     borderopacity="1.0"
     inkscape:pageshadow="2"
     inkscape:pageopacity="0.0"
     inkscape:pagecheckerboard="0"
     showgrid="false"
     inkscape:zoom="1.0604976"
     inkscape:cx="368.69485"
     inkscape:cy="379.06734"
     inkscape:window-width="1920"
     inkscape:window-height="1011"
     inkscape:window-x="0"
     inkscape:window-y="0"
     inkscape:window-maximized="1"
     inkscape:current-layer="g8" />
  <g
     inkscape:groupmode="layer"
     inkscape:label="Image"
     id="g8">
    <rect
       style="opacity:1;fill:#ffe6c0;fill-opacity:1;stroke:#000000;stroke-width:2.98252;stroke-miterlimit:4;stroke-dasharray:none;stroke-dashoffset:0;stroke-opacity:1"
       id="rect95519"
       width="509.01749"
       height="509.01749"
       x="1.4912567"
       y="1.4912567" />
    <g
       id="g113878"
       transform="translate(-1.2707324,-16.360809)">
      <path
         style="fill:#6f6f6f;fill-opacity:1;stroke:#000000;stroke-width:3;stroke-linecap:butt;stroke-linejoin:miter;stroke-miterlimit:4;stroke-dasharray:none;stroke-opacity:1"
         d="m 197.06502,323.7002 c -26.19667,-5.36602 -50.61022,2.53929 -59.23129,19.17085 l 3.00591,118.7451 h 235.8609 l -1.30133,-119.10503 c -6.38753,-27.5924 -61.05163,-16.53875 -60.19717,-16.71786 -39.73289,32.86656 -122.4584,-1.76128 -118.13702,-2.09306 z"
         id="path22397"
         sodipodi:nodetypes="ccccccc" />
      <path
         style="fill:#f9e9d3;fill-opacity:1;stroke:#000000;stroke-width:3;stroke-linecap:butt;stroke-linejoin:miter;stroke-miterlimit:4;stroke-dasharray:none;stroke-opacity:1"
         d="m 207.4352,175.25391 c 38.94475,-20.87113 64.90017,-13.24257 88.29688,0 27.15991,27.0137 23.91446,59.93762 3.35742,96.22656 l -14.62383,5.65972 0.57972,40.98961 c 0,0 17.06996,9.10495 30.54067,7.2293 -41.43605,29.52011 -146.96561,-6.06616 -112.94452,-2.25631 l 23.12826,-4.22257 0.66385,-40.81809 c 0,0 -12.4319,-4.26921 -21.59415,-6.58166 -23.38772,-27.51349 -12.97388,-61.38512 2.5957,-96.22656 z"
         id="path4263"
         sodipodi:nodetypes="ccccccccccc" />
      <circle
         style="opacity:1;fill:none;fill-opacity:0.976471;stroke:#000000;stroke-width:3;stroke-miterlimit:4;stroke-dasharray:none;stroke-dashoffset:0;stroke-opacity:1"
         id="path2346"
         cx="234.63133"
         cy="194.57326"
         r="18.943863" />
      <path
         id="path2346-4"
         style="opacity:1;fill:none;fill-opacity:0.976471;stroke:#000000;stroke-width:3;stroke-miterlimit:4;stroke-dasharray:none;stroke-dashoffset:0;stroke-opacity:1"
         d="m 277.36914,175.62891 a 18.943863,18.943863 0 0 0 -18.90625,18.41015 18.943863,18.943863 0 0 0 -0.0391,0.53516 18.943863,18.943863 0 0 0 18.94531,18.94336 18.943863,18.943863 0 0 0 18.94336,-18.94336 18.943863,18.943863 0 0 0 -0.008,-0.2832 18.943863,18.943863 0 0 0 -18.93555,-18.66211 z" />
      <path
         style="fill:none;stroke:#000000;stroke-width:3;stroke-linecap:butt;stroke-linejoin:miter;stroke-miterlimit:4;stroke-dasharray:none;stroke-opacity:1"
         d="m 208.42579,192.74051 h 7.94828 z"
         id="path2843" />
      <path
         style="fill:none;stroke:#000000;stroke-width:3;stroke-linecap:butt;stroke-linejoin:miter;stroke-miterlimit:4;stroke-dasharray:none;stroke-opacity:1"
         d="m 253.91667,192.851 h 4.33071 z"
         id="path2845" />
      <path
         style="fill:none;stroke:#000000;stroke-width:3;stroke-linecap:butt;stroke-linejoin:miter;stroke-miterlimit:4;stroke-dasharray:none;stroke-opacity:1"
         d="m 296.00554,192.73357 h 7.71133 z"
         id="path2847" />
      <circle
         style="opacity:1;fill:#2e3436;fill-opacity:0.976471;stroke:#000000;stroke-width:3;stroke-miterlimit:4;stroke-dasharray:none;stroke-dashoffset:0;stroke-opacity:1"
         id="path3855"
         cx="234.14075"
         cy="194.16548"
         r="5.0729709" />
      <circle
         style="fill:#2e3436;fill-opacity:0.976471;stroke:#000000;stroke-width:3;stroke-miterlimit:4;stroke-dasharray:none;stroke-dashoffset:0;stroke-opacity:1"
         id="path3855-1"
         cx="277.17627"
         cy="194.91826"
         r="5.0729709" />
      <path
         style="fill:none;stroke:#000000;stroke-width:3;stroke-linecap:butt;stroke-linejoin:miter;stroke-miterlimit:4;stroke-dasharray:none;stroke-opacity:1"
         d="m 247.76784,218.65804 c 8.30686,7.71483 12.47515,3.97596 16.57411,0.0452 -7.9847,5.66837 -12.06446,2.31498 -16.57411,-0.0452 z"
         id="path3997"
         sodipodi:nodetypes="ccc" />
      <path
         style="fill:#2e3436;stroke:#000000;stroke-width:3;stroke-linecap:butt;stroke-linejoin:miter;stroke-miterlimit:4;stroke-dasharray:none;stroke-opacity:1"
         d="m 243.43949,251.01373 v 0 l 9.62011,-6.24507 2.96925,2.36829 2.72961,-2.6516 9.80205,7.06135 v 0 c -13.3432,9.52021 -19.09499,4.22603 -25.12102,-0.53297 z"
         id="path4259"
         sodipodi:nodetypes="cccccccc" />
      <path
         style="fill:none;stroke:#000000;stroke-width:3;stroke-linecap:butt;stroke-linejoin:miter;stroke-miterlimit:4;stroke-dasharray:none;stroke-opacity:1"
         d="m 164.72494,369.27295 15.23502,10.95897 -0.38101,-14.79864 -3.18997,95.93031 2.44082,-82.53083 z"
         id="path23990" />
      <path
         style="fill:none;stroke:#000000;stroke-width:3;stroke-linecap:butt;stroke-linejoin:miter;stroke-miterlimit:4;stroke-dasharray:none;stroke-opacity:1"
         d="m 324.40953,351.21272 3.45408,17.99783 -1.68275,-12.76991 7.86368,1.2234 -8.44723,-0.95672 z"
         id="path23992" />
      <path
         style="fill:#d3d3d3;fill-opacity:1;stroke:#000000;stroke-width:3;stroke-linecap:butt;stroke-linejoin:miter;stroke-miterlimit:4;stroke-dasharray:none;stroke-opacity:1"
         d="m 263.4924,461.41924 -0.39108,-92.3931 92.67849,2.03188 v 90.01256 z"
         id="path23994" />
      <path
         style="fill:#949494;fill-opacity:1;stroke:#000000;stroke-width:2.96043;stroke-linecap:butt;stroke-linejoin:miter;stroke-miterlimit:4;stroke-dasharray:none;stroke-opacity:1"
         d="m 260.21427,460.93325 0.21405,-84.56667 c 0,-5.29623 -1.48335,-11.88837 7.51901,-12.03636 l 76.25487,1.49954 c 0,0 16.66471,3.18358 10.42487,5.18895 -22.05492,-0.3363 -64.10544,-1.63415 -81.16806,-1.89433 -5.53263,-0.0843 -6.53921,3.84359 -6.53921,3.84359 v 0 c 0,0 -0.78916,71.20038 -0.71802,88.47138 z"
         id="path28670"
         sodipodi:nodetypes="cccccscscc" />
      <path
         style="fill:none;stroke:#000000;stroke-width:1px;stroke-linecap:butt;stroke-linejoin:miter;stroke-opacity:1"
         d="M 210.06381,331.48202 Z"
         id="path38883" />
      <path
         style="fill:#b6b6b6;fill-opacity:1;stroke:#000000;stroke-width:3;stroke-linecap:butt;stroke-linejoin:miter;stroke-miterlimit:4;stroke-dasharray:none;stroke-opacity:1"
         d="m 196.26855,323.10279 c 1.69477,1.57007 2.43903,10.19776 2.43903,10.19776 41.70147,17.06656 61.00024,15.29391 113.89918,2.83638 3.77632,-0.88931 2.87791,-13.55256 2.9793,-10.77783 9e-4,0.0247 -0.11174,-1.03992 0,0 -68.55831,26.28784 -122.0988,-3.38102 -119.31751,-2.25631 z"
         id="path38885"
         sodipodi:nodetypes="cssscc" />
      <path
         id="path849"
         style="display:inline;opacity:1;fill:#424441;fill-opacity:1;stroke:#000000;stroke-width:3;stroke-miterlimit:4;stroke-dasharray:none;stroke-dashoffset:0;stroke-opacity:0.823529"
         d="m 256,83.105469 c -57.70488,3.4e-5 -104.48401,58.437221 -104.48438,130.523441 0.0634,20.08695 3.83708,39.88461 11.02735,57.85156 h 46.71289 c -5.58914,-26.36017 -6.65201,-56.72697 2.5957,-96.22656 29.81541,-6.20767 59.27331,-6.63984 88.29688,0 5.80153,29.70241 12.62535,61.15401 3.35742,96.22656 h 45.94922 c 7.19048,-17.96557 10.96485,-37.76183 11.0293,-57.84766 v -0.002 C 360.48486,141.54393 313.70549,83.105503 256,83.105469 Z" />
      <path
         style="fill:none;stroke:#000000;stroke-width:3;stroke-linecap:butt;stroke-linejoin:miter;stroke-miterlimit:4;stroke-dasharray:none;stroke-opacity:1"
         d="m 261.90418,366.74913 c 1.94487,1.18758 -0.99149,-0.95421 6.36921,3.92737"
         id="path88835"
         sodipodi:nodetypes="cc" />
    </g>
  </g>
</svg>
