<?xml version="1.0" encoding="UTF-8" standalone="no"?>
<!-- Created with Inkscape (http://www.inkscape.org/) -->

<svg
   version="1.1"
   id="svg2"
   width="512"
   height="512"
   viewBox="0 0 512 512"
   sodipodi:docname="girl-laptop-512x512.svg"
   inkscape:version="1.1.2 (0a00cf5339, 2022-02-04)"
   xmlns:inkscape="http://www.inkscape.org/namespaces/inkscape"
   xmlns:sodipodi="http://sodipodi.sourceforge.net/DTD/sodipodi-0.dtd"
   xmlns="http://www.w3.org/2000/svg"
   xmlns:svg="http://www.w3.org/2000/svg">
  <defs
     id="defs6">
    <inkscape:perspective
       sodipodi:type="inkscape:persp3d"
       inkscape:vp_x="40.41544 : -237.1564 : 1"
       inkscape:vp_y="-928.00702 : -916.82374 : 0"
       inkscape:vp_z="-428.99831 : 237.98319 : 1"
       inkscape:persp3d-origin="-115.10149 : 78.649014 : 1"
       id="perspective7966" />
    <linearGradient
       id="linearGradient862"
       inkscape:swatch="solid">
      <stop
         style="stop-color:#ffe6c0;stop-opacity:1;"
         offset="0"
         id="stop860" />
    </linearGradient>
  </defs>
  <sodipodi:namedview
     id="namedview4"
     pagecolor="#ffffff"
     bordercolor="#666666"
     borderopacity="1.0"
     inkscape:pageshadow="2"
     inkscape:pageopacity="0.0"
     inkscape:pagecheckerboard="0"
     showgrid="false"
     inkscape:zoom="0.96353985"
     inkscape:cx="440.56299"
     inkscape:cy="444.19543"
     inkscape:window-width="1920"
     inkscape:window-height="1011"
     inkscape:window-x="0"
     inkscape:window-y="0"
     inkscape:window-maximized="1"
     inkscape:current-layer="g8" />
  <g
     inkscape:groupmode="layer"
     inkscape:label="Image"
     id="g8">
    <rect
       style="opacity:1;fill:#ffffff;fill-opacity:1;stroke:none;stroke-width:3;stroke-miterlimit:4;stroke-dasharray:none;stroke-dashoffset:0;stroke-opacity:1"
       id="rect95519"
       width="512"
       height="512"
       x="0"
       y="0" />
    <path
       style="fill:#333333;fill-opacity:1;stroke:#000000;stroke-width:2.82595;stroke-linecap:butt;stroke-linejoin:miter;stroke-miterlimit:4;stroke-dasharray:none;stroke-opacity:1"
       d="m 193.94308,485.24756 -33.5441,-37.64475 173.59441,-13.24474 37.54586,49.28306 z"
       id="path5653"
       sodipodi:nodetypes="ccccc" />
    <path
       style="fill:#6f6f6f;fill-opacity:1;stroke:#000000;stroke-width:3;stroke-linecap:butt;stroke-linejoin:miter;stroke-miterlimit:4;stroke-dasharray:none;stroke-opacity:1"
       d="m 195.79429,307.33939 c -26.20598,-5.46083 -43.25692,28.88306 -43.2084,58.25761 1.52946,33.48812 8.52778,77.46163 30.4514,78.34147 l 179.58575,2.61689 -10.95324,-113.2368 c -6.38753,-27.5924 -38.59295,-23.707 -37.73849,-23.88611 -39.73289,32.86656 -122.4584,-1.76128 -118.13702,-2.09306 z"
       id="path22397"
       sodipodi:nodetypes="ccccccc" />
    <path
       style="fill:#f9e9d3;fill-opacity:1;stroke:#000000;stroke-width:3;stroke-linecap:butt;stroke-linejoin:miter;stroke-miterlimit:4;stroke-dasharray:none;stroke-opacity:1"
       d="m 206.16447,158.8931 c 38.94475,-20.87113 64.90017,-13.24257 88.29688,0 27.15991,27.0137 23.91446,59.93762 3.35742,96.22656 l -14.62383,5.65972 0.57972,40.98961 c 0,0 17.06996,9.10495 30.54067,7.2293 -41.43605,29.52011 -146.96561,-6.06616 -112.94452,-2.25631 l 23.12826,-4.22257 0.66385,-40.81809 c 0,0 -12.4319,-4.26921 -21.59415,-6.58166 -23.38772,-27.51349 -12.97388,-61.38512 2.5957,-96.22656 z"
       id="path4263"
       sodipodi:nodetypes="ccccccccccc" />
    <circle
       style="fill:none;fill-opacity:0.976471;stroke:#000000;stroke-width:3;stroke-miterlimit:4;stroke-dasharray:none;stroke-dashoffset:0;stroke-opacity:1"
       id="path2346"
       cx="233.3606"
       cy="178.21245"
       r="18.943863" />
    <path
       id="path2346-4"
       style="fill:none;fill-opacity:0.976471;stroke:#000000;stroke-width:3;stroke-miterlimit:4;stroke-dasharray:none;stroke-dashoffset:0;stroke-opacity:1"
       d="m 276.09841,159.2681 a 18.943863,18.943863 0 0 0 -18.90625,18.41015 18.943863,18.943863 0 0 0 -0.0391,0.53516 18.943863,18.943863 0 0 0 18.94531,18.94336 18.943863,18.943863 0 0 0 18.94336,-18.94336 18.943863,18.943863 0 0 0 -0.008,-0.2832 18.943863,18.943863 0 0 0 -18.93555,-18.66211 z" />
    <path
       style="fill:none;stroke:#000000;stroke-width:3;stroke-linecap:butt;stroke-linejoin:miter;stroke-miterlimit:4;stroke-dasharray:none;stroke-opacity:1"
       d="m 207.15506,176.3797 h 7.94828 z"
       id="path2843" />
    <path
       style="fill:none;stroke:#000000;stroke-width:3;stroke-linecap:butt;stroke-linejoin:miter;stroke-miterlimit:4;stroke-dasharray:none;stroke-opacity:1"
       d="m 252.64594,176.49019 h 4.33071 z"
       id="path2845" />
    <path
       style="fill:none;stroke:#000000;stroke-width:3;stroke-linecap:butt;stroke-linejoin:miter;stroke-miterlimit:4;stroke-dasharray:none;stroke-opacity:1"
       d="m 294.73481,176.37276 h 7.71133 z"
       id="path2847" />
    <circle
       style="fill:#2e3436;fill-opacity:0.976471;stroke:#000000;stroke-width:3;stroke-miterlimit:4;stroke-dasharray:none;stroke-dashoffset:0;stroke-opacity:1"
       id="path3855"
       cx="232.87001"
       cy="177.80467"
       r="5.0729709" />
    <circle
       style="fill:#2e3436;fill-opacity:0.976471;stroke:#000000;stroke-width:3;stroke-miterlimit:4;stroke-dasharray:none;stroke-dashoffset:0;stroke-opacity:1"
       id="path3855-1"
       cx="275.90555"
       cy="178.55745"
       r="5.0729709" />
    <path
       style="fill:none;stroke:#000000;stroke-width:3;stroke-linecap:butt;stroke-linejoin:miter;stroke-miterlimit:4;stroke-dasharray:none;stroke-opacity:1"
       d="m 246.49711,202.29723 c 8.30686,7.71483 12.47515,3.97596 16.57411,0.0452 -7.9847,5.66837 -12.06446,2.31498 -16.57411,-0.0452 z"
       id="path3997"
       sodipodi:nodetypes="ccc" />
    <path
       style="fill:#2e3436;stroke:#000000;stroke-width:3;stroke-linecap:butt;stroke-linejoin:miter;stroke-miterlimit:4;stroke-dasharray:none;stroke-opacity:1"
       d="m 242.16876,234.65292 v 0 l 9.62011,-6.24507 2.96925,2.36829 2.72961,-2.6516 9.80205,7.06135 v 0 c -13.3432,9.52021 -19.09499,4.22603 -25.12102,-0.53297 z"
       id="path4259"
       sodipodi:nodetypes="cccccccc" />
    <path
       style="fill:none;stroke:#000000;stroke-width:1px;stroke-linecap:butt;stroke-linejoin:miter;stroke-opacity:1"
       d="M 208.79308,315.12121 Z"
       id="path38883" />
    <path
       style="fill:#b6b6b6;fill-opacity:1;stroke:#000000;stroke-width:3;stroke-linecap:butt;stroke-linejoin:miter;stroke-miterlimit:4;stroke-dasharray:none;stroke-opacity:1"
       d="m 194.99782,306.74198 c 1.69477,1.57007 2.43903,10.19776 2.43903,10.19776 41.70147,17.06656 61.00024,15.29391 113.89918,2.83638 3.77632,-0.88931 2.87791,-13.55256 2.9793,-10.77783 9e-4,0.0247 -0.11174,-1.03992 0,0 -68.55831,26.28784 -122.0988,-3.38102 -119.31751,-2.25631 z"
       id="path38885"
       sodipodi:nodetypes="cssscc" />
    <path
       id="path849"
       style="display:inline;fill:#424441;fill-opacity:1;stroke:#000000;stroke-width:3;stroke-miterlimit:4;stroke-dasharray:none;stroke-dashoffset:0;stroke-opacity:0.823529"
       d="m 254.72927,66.74466 c -57.70488,3.4e-5 -104.48401,58.43722 -104.48438,130.52344 0.0634,20.08695 3.83708,39.88461 11.02735,57.85156 h 46.71289 c -5.58914,-26.36017 -6.65201,-56.72697 2.5957,-96.22656 29.81541,-6.20767 59.27331,-6.63984 88.29688,0 5.80153,29.70241 12.62535,61.15401 3.35742,96.22656 h 45.94922 c 7.19048,-17.96557 10.96485,-37.76183 11.0293,-57.84766 V 197.27 C 359.21413,125.18312 312.43476,66.744694 254.72927,66.74466 Z" />
    <rect
       style="opacity:1;fill:#bcbcbc;fill-opacity:1;stroke:#000000;stroke-width:2.82595;stroke-miterlimit:4;stroke-dasharray:none;stroke-opacity:1"
       id="rect2757"
       width="186.56223"
       height="110.76447"
       x="188.92267"
       y="379.39838"
       ry="14.50969"
       rx="14.509691" />
    <g
       sodipodi:type="inkscape:box3d"
       id="g7968"
       style="opacity:1;fill:#8c908c;fill-opacity:1;stroke:#000000;stroke-width:3;stroke-miterlimit:4;stroke-dasharray:none;stroke-opacity:1"
       inkscape:perspectiveID="#perspective7966"
       inkscape:corner0="1.2359386 : -0.27994925 : 0 : 1"
       inkscape:corner7="1.1310424 : -0.39236481 : 0.25 : 1">
      <path
         sodipodi:type="inkscape:box3dside"
         id="path7980"
         style="fill:#8c908c;stroke-width:3.91355;fill-opacity:1"
         inkscape:box3dsidetype="11"
         d="m 35.155657,471.09063 -0.231719,-12.25011 43.813764,-43.28577 -1.617039,14.07659 z"
         points="34.923938,458.84052 78.737702,415.55475 77.120663,429.63134 35.155657,471.09063 " />
      <path
         sodipodi:type="inkscape:box3dside"
         id="path7970"
         style="fill:#8c908c;fill-rule:evenodd;stroke:none;stroke-width:3.91355;stroke-linejoin:round;fill-opacity:1"
         inkscape:box3dsidetype="6"
         d="M 87.052651,493.12543 133.70976,447.03058 77.120663,429.63134 35.155657,471.09063 Z"
         points="133.70976,447.03058 77.120663,429.63134 35.155657,471.09063 87.052651,493.12543 " />
      <path
         sodipodi:type="inkscape:box3dside"
         id="path7978"
         style="fill:#8c908c;fill-rule:evenodd;stroke:none;stroke-width:3.91355;stroke-linejoin:round;fill-opacity:1"
         inkscape:box3dsidetype="13"
         d="m 133.70976,447.03058 4.59222,-14.87153 -59.564278,-16.6043 -1.617039,14.07659 z"
         points="138.30198,432.15905 78.737702,415.55475 77.120663,429.63134 133.70976,447.03058 " />
      <path
         sodipodi:type="inkscape:box3dside"
         id="path7972"
         style="fill:#8c908c;stroke-width:3.91355;fill-opacity:1"
         inkscape:box3dsidetype="5"
         d="m 87.052651,493.12543 2.295621,-12.6026 -54.424334,-21.68231 0.231719,12.25011 z"
         points="89.348272,480.52283 34.923938,458.84052 35.155657,471.09063 87.052651,493.12543 " />
      <path
         sodipodi:type="inkscape:box3dside"
         id="path7976"
         style="fill:#8c908c;stroke-width:3.91355;fill-opacity:1"
         inkscape:box3dsidetype="14"
         d="M 89.348272,480.52283 138.30198,432.15905 78.737702,415.55475 34.923938,458.84052 Z"
         points="138.30198,432.15905 78.737702,415.55475 34.923938,458.84052 89.348272,480.52283 " />
      <path
         sodipodi:type="inkscape:box3dside"
         id="path7974"
         style="fill:#8c908c;fill-rule:evenodd;stroke:none;stroke-width:3.91355;stroke-linejoin:round;fill-opacity:1"
         inkscape:box3dsidetype="3"
         d="m 87.052651,493.12543 2.295621,-12.6026 48.953708,-48.36378 -4.59222,14.87153 z"
         points="89.348272,480.52283 138.30198,432.15905 133.70976,447.03058 87.052651,493.12543 " />
    </g>
  </g>
</svg>
