<?xml version="1.0" encoding="UTF-8" standalone="no"?>
<!-- Created with Inkscape (http://www.inkscape.org/) -->

<svg
   width="512"
   height="512"
   viewBox="0 0 512 512"
   version="1.1"
   id="svg5"
   inkscape:version="1.1.2 (0a00cf5339, 2022-02-04)"
   sodipodi:docname="bg.svg"
   xmlns:inkscape="http://www.inkscape.org/namespaces/inkscape"
   xmlns:sodipodi="http://sodipodi.sourceforge.net/DTD/sodipodi-0.dtd"
   xmlns="http://www.w3.org/2000/svg"
   xmlns:svg="http://www.w3.org/2000/svg">
  <sodipodi:namedview
     id="namedview7"
     pagecolor="#ffffff"
     bordercolor="#666666"
     borderopacity="1.0"
     inkscape:pageshadow="2"
     inkscape:pageopacity="0.0"
     inkscape:pagecheckerboard="0"
     inkscape:document-units="px"
     showgrid="false"
     inkscape:zoom="1.1018427"
     inkscape:cx="273.63251"
     inkscape:cy="291.33014"
     inkscape:window-width="1920"
     inkscape:window-height="1011"
     inkscape:window-x="0"
     inkscape:window-y="0"
     inkscape:window-maximized="1"
     inkscape:current-layer="layer1" />
  <defs
     id="defs2" />
  <g
     inkscape:label="Layer 1"
     inkscape:groupmode="layer"
     id="layer1">
    <path
       style="opacity:1;fill:#d3d7cf;fill-opacity:0.900392;stroke:#3e3e3e;stroke-width:1;paint-order:normal;stroke-miterlimit:4;stroke-dasharray:none;stroke-dashoffset:30"
       id="path1461"
       sodipodi:type="arc"
       sodipodi:cx="160.98785"
       sodipodi:cy="137.06949"
       sodipodi:rx="51.650867"
       sodipodi:ry="51.650867"
       sodipodi:start="0"
       sodipodi:end="6.2763087"
       sodipodi:open="true"
       sodipodi:arc-type="arc"
       d="m 212.63872,137.06949 a 51.650867,51.650867 0 0 1 -51.56207,51.65079 51.650867,51.650867 0 0 1 -51.73936,-51.4732 51.650867,51.650867 0 0 1 51.38418,-51.827772 51.650867,51.650867 0 0 1 51.91603,51.295002" />
    <path
       style="opacity:1;fill:#babdb6;fill-opacity:0.900392;stroke:#3e3e3e;stroke-width:1;paint-order:normal;stroke-miterlimit:4;stroke-dasharray:none;stroke-dashoffset:30"
       id="path1645"
       sodipodi:type="arc"
       sodipodi:cx="340.43713"
       sodipodi:cy="344.80203"
       sodipodi:rx="66.600586"
       sodipodi:ry="66.600586"
       sodipodi:start="0"
       sodipodi:end="6.2763087"
       sodipodi:open="true"
       sodipodi:arc-type="arc"
       d="m 407.03772,344.80203 a 66.600586,66.600586 0 0 1 -66.48609,66.60049 66.600586,66.600586 0 0 1 -66.71469,-66.3715 66.600586,66.600586 0 0 1 66.25671,-66.82869 66.600586,66.600586 0 0 1 66.9425,66.14172" />
    <path
       style="opacity:1;fill:#eeeeec;fill-opacity:0.900392;stroke:#3e3e3e;stroke-width:1;paint-order:normal;stroke-miterlimit:4;stroke-dasharray:none;stroke-dashoffset:30"
       id="path1647"
       sodipodi:type="arc"
       sodipodi:cx="411.2627"
       sodipodi:cy="113.81453"
       sodipodi:rx="31.848627"
       sodipodi:ry="31.848627"
       sodipodi:start="0"
       sodipodi:end="6.2763087"
       sodipodi:open="true"
       sodipodi:arc-type="arc"
       d="m 443.11132,113.81453 a 31.848627,31.848627 0 0 1 -31.79387,31.84858 31.848627,31.848627 0 0 1 -31.90319,-31.73908 31.848627,31.848627 0 0 1 31.68418,-31.957704 31.848627,31.848627 0 0 1 32.01213,31.629194" />
    <path
       style="opacity:1;fill:#888a85;fill-opacity:0.900392;stroke:#3e3e3e;stroke-width:1;paint-order:normal;stroke-miterlimit:4;stroke-dasharray:none;stroke-dashoffset:30"
       id="path1751"
       sodipodi:type="arc"
       sodipodi:cx="121.92908"
       sodipodi:cy="376.30923"
       sodipodi:rx="21.415485"
       sodipodi:ry="21.415485"
       sodipodi:start="0"
       sodipodi:end="6.2763087"
       sodipodi:open="true"
       sodipodi:arc-type="arc"
       d="m 143.34456,376.30923 a 21.415485,21.415485 0 0 1 -21.37867,21.41546 21.415485,21.415485 0 0 1 -21.45217,-21.34182 21.415485,21.415485 0 0 1 21.30491,-21.48884 21.415485,21.415485 0 0 1 21.52543,21.26794" />
  </g>
</svg>
