<?xml version="1.0" encoding="UTF-8" standalone="no"?>
<!-- Created with Inkscape (http://www.inkscape.org/) -->

<svg
   width="1500"
   height="500"
   viewBox="0 0 1500 500"
   version="1.1"
   id="svg5"
   inkscape:version="1.1.2 (0a00cf5339, 2022-02-04)"
   sodipodi:docname="header-banner.svg"
   xmlns:inkscape="http://www.inkscape.org/namespaces/inkscape"
   xmlns:sodipodi="http://sodipodi.sourceforge.net/DTD/sodipodi-0.dtd"
   xmlns="http://www.w3.org/2000/svg"
   xmlns:svg="http://www.w3.org/2000/svg">
  <sodipodi:namedview
     id="namedview7"
     pagecolor="#ffffff"
     bordercolor="#666666"
     borderopacity="1.0"
     inkscape:pageshadow="2"
     inkscape:pageopacity="0.0"
     inkscape:pagecheckerboard="0"
     inkscape:document-units="px"
     showgrid="false"
     inkscape:zoom="0.18357211"
     inkscape:cx="479.37565"
     inkscape:cy="1195.7154"
     inkscape:window-width="1347"
     inkscape:window-height="926"
     inkscape:window-x="0"
     inkscape:window-y="0"
     inkscape:window-maximized="0"
     inkscape:current-layer="layer2" />
  <defs
     id="defs2" />
  <g
     inkscape:label="Layer 1"
     inkscape:groupmode="layer"
     id="layer1" />
  <g
     inkscape:groupmode="layer"
     id="layer2"
     inkscape:label="Layer 2">
    <path
       id="path858"
       style="opacity:0.502558;fill:#888a85;stroke:#000000;stroke-width:0.754914px;stroke-linecap:butt;stroke-linejoin:miter;stroke-opacity:1"
       d="m 334.28577,346.15476 -153.70905,0.33028 c -36.39154,53.62535 -17.97617,115.1777 10.17367,135.90807 h 136.83846 c 0,0 18.36449,3.93258 24.38138,-32.71195 43.90193,-3.8308 65.20492,-90.65006 0,-75.15963 -1.13985,-11.55257 -6.35072,-25.9976 -17.68446,-28.36677 z m 30.7465,40.81842 c 6.66083,0.0642 13.1272,2.19464 13.54716,11.76604 1.08888,22.2948 -15.4774,35.04864 -25.59037,35.07106 0.96448,-13.17336 1.73252,-33.63753 -0.0264,-45.78876 2.8655,-0.16932 7.51312,-1.09223 12.06978,-1.04834 z"
       sodipodi:nodetypes="ccccccccccccc" />
    <path
       style="opacity:0.502558;fill:#888a85;stroke:#000000;stroke-width:0.754914px;stroke-linecap:butt;stroke-linejoin:miter;stroke-opacity:1"
       d="m 284.09646,203.34603 c 93.13643,110.4099 -23.51021,86.48948 -22.16729,134.2597 -11.52625,-53.77824 86.91322,-29.57799 22.16729,-134.2597 z"
       id="path3702"
       sodipodi:nodetypes="ccc" />
    <path
       style="opacity:0.502558;fill:#888a85;stroke:#000000;stroke-width:0.754914px;stroke-linecap:butt;stroke-linejoin:miter;stroke-opacity:1"
       d="m 285.72503,284.25276 c -61.03047,-70.20128 -29.50837,-97.6611 4.31222,-122.56733 -25.9414,4.36072 -105.7176,49.91085 -4.31222,122.56733 z"
       id="path3817"
       sodipodi:nodetypes="ccc" />
    <path
       id="rect9456"
       style="opacity:1;fill:#878985;fill-opacity:0.501961;stroke:#3e3e3e;stroke-width:1.15048;stroke-linejoin:round;stroke-miterlimit:4;stroke-dasharray:none"
       d="M 967.40558,26.509366 V 345.61655 H 1466.8233 V 26.509366 Z m 18.0136,14.92397 H 1200.2046 V 325.51505 H 985.41918 Z m 243.81882,0 h 217.775 l -0.2731,282.556114 -217.5019,1.5256 z"
       sodipodi:nodetypes="ccccccccccccccc" />
  </g>
</svg>
